<?xml version="1.0" encoding="utf-8"?><svg id="Livello_2" data-name="Livello 2" xmlns="http://www.w3.org/2000/svg" viewBox="0 0 166 166"><defs><style>.cls-1{fill:#121258;}</style></defs><title>W47_DownloadApp_Icon2</title><path class="cls-1" d="M111.34,50H54.66V43.14A5.51,5.51,0,0,1,60,37.47H106a5.51,5.51,0,0,1,5.3,5.67ZM57.14,47.5h51.72V43.14A3,3,0,0,0,106,40H60a3,3,0,0,0-2.83,3.18Z"/><rect class="cls-1" x="108.86" y="48.52" width="2.48" height="56.37"/><rect class="cls-1" x="54.66" y="48.52" width="2.48" height="68.18"/><path class="cls-1" d="M106,128.53H60a5.51,5.51,0,0,1-5.31-5.67v-9.93h56.68v9.93A5.51,5.51,0,0,1,106,128.53Zm-48.9-13.11v7.44A3,3,0,0,0,60,126H106a3,3,0,0,0,2.82-3.18v-7.44Z"/><rect class="cls-1" x="80.29" y="119.49" width="5.42" height="2.48"/><path class="cls-1" d="M85.89,77.15l-5.66-5.66-5.66,5.66L72.81,75.4,80.23,68l7.42,7.42Zm15.2-.88H98.6V71H93.24v5.29H90.76V68.49h10.33Z"/><path class="cls-1" d="M91.58,76.74l-2.3-.93,1.57-3.92,2.3.92Zm-5-1.3-2.3-1,5.06-12.28,6.85,2.94-2,5-2.31-.92L93,66.48l-2.3-1Z"/><path class="cls-1" d="M98.13,93.21H75.34L68.8,67.06H63.23V64.57h7.51L73.36,75h30.82ZM77.28,90.72h19l4.41-13.2H74Z"/><path class="cls-1" d="M77.62,101.05a3.86,3.86,0,1,1,3.85-3.85A3.86,3.86,0,0,1,77.62,101.05Zm0-5.23A1.38,1.38,0,1,0,79,97.2,1.38,1.38,0,0,0,77.62,95.82Z"/><path class="cls-1" d="M94.61,101.05a3.86,3.86,0,1,1,3.86-3.85A3.86,3.86,0,0,1,94.61,101.05Zm0-5.23A1.38,1.38,0,1,0,96,97.2,1.38,1.38,0,0,0,94.61,95.82Z"/><path class="cls-1" d="M83,165.75A82.75,82.75,0,1,1,165.75,83,82.84,82.84,0,0,1,83,165.75Zm0-163A80.27,80.27,0,1,0,163.27,83,80.36,80.36,0,0,0,83,2.73Z"/></svg>