<?xml version="1.0" encoding="utf-8"?><svg id="Livello_2" data-name="Livello 2" xmlns="http://www.w3.org/2000/svg" viewBox="0 0 166 166"><defs><style>.cls-1{fill:#121258;}</style></defs><title>W47_DownloadApp_Icon3</title><path class="cls-1" d="M83,166a83,83,0,1,1,83-83A83.09,83.09,0,0,1,83,166ZM83,2.49A80.51,80.51,0,1,0,163.51,83,80.61,80.61,0,0,0,83,2.49Z"/><path class="cls-1" d="M60.64,96.55a1.23,1.23,0,0,0-.24,1.72L62,100.38a1.23,1.23,0,0,0,2-1.47L62.37,96.8A1.23,1.23,0,0,0,60.64,96.55Z"/><path class="cls-1" d="M51.17,83.89a1.25,1.25,0,0,0-.25,1.73l1.58,2.11a1.24,1.24,0,0,0,2-1.48L52.9,84.14A1.24,1.24,0,0,0,51.17,83.89Z"/><path class="cls-1" d="M55.91,90.22A1.23,1.23,0,0,0,55.66,92l1.58,2.1a1.23,1.23,0,0,0,2-1.47l-1.58-2.11A1.22,1.22,0,0,0,55.91,90.22Z"/><path class="cls-1" d="M65.38,102.88a1.22,1.22,0,0,0-.25,1.72l1.58,2.11a1.23,1.23,0,1,0,2-1.48l-1.58-2.11A1.23,1.23,0,0,0,65.38,102.88Z"/><path class="cls-1" d="M70.12,109.2a1.23,1.23,0,0,0-.25,1.73L71.45,113a1.23,1.23,0,1,0,2-1.48l-1.58-2.11A1.24,1.24,0,0,0,70.12,109.2Z"/><path class="cls-1" d="M77,96.6,71.33,89l-1.71,1.27-1.24-1.65L72,85.92,78.9,95.2Z"/><path class="cls-1" d="M80.27,93.16c-1.39-1.85-.47-4.21.09-6.24a3.56,3.56,0,0,0-.31-3.11A1.39,1.39,0,0,0,78,83.55c-.83.62-1,1.51-.21,2.62l-1.84,1.38c-1.42-1.89-1-4.07,1-5.54,1.54-1.15,3.59-1.56,5,.36s.81,3.86.28,5.46a4.81,4.81,0,0,0-.38,2.75l4.09-3.06,1.18,1.57-6.31,4.72Z"/><path class="cls-1" d="M85.89,85.33l1.88-1.41a2,2,0,0,0,2.91.29,1.68,1.68,0,0,0,.55-2.4,1.82,1.82,0,0,0-2.68-.11l-.71.54L86.7,80.72l.74-.55a1.63,1.63,0,0,0,.46-2.25,1.41,1.41,0,0,0-2.1-.15,1.73,1.73,0,0,0-.35,2.67l-1.88,1.4a3.9,3.9,0,0,1,1.05-5.62c1.84-1.38,3.82-1.46,5,.13A3,3,0,0,1,90,79.27a3,3,0,0,1,3.13,1.12c1.31,1.75.56,4-1.35,5.44S87.6,87.31,85.89,85.33Z"/><path class="cls-1" d="M99.21,76.68,94.72,80l-1.09-1.46V69.71l2.16-1.62v8.68L98,75.1l-1.53-2,1.85-1.39,1.53,2,1.59-1.19,1.19,1.58-1.6,1.19,1.6,2.13L100.8,78.8Z"/><path class="cls-1" d="M103.11,72.55,105,71.14a2,2,0,0,0,3.08-2.42,1.93,1.93,0,0,0-2.75-.42,1.77,1.77,0,0,0-.87,1.68l-1.89,1.41-3.18-6,5.42-4.06L106,63l-3.89,2.92,1.16,2.25a3.21,3.21,0,0,1,1.32-1.78,3.68,3.68,0,0,1,5.32,1c1.48,2,.74,4.31-1.07,5.67A4,4,0,0,1,103.11,72.55Z"/><path class="cls-1" d="M63.41,127.35a4.59,4.59,0,0,1-3.71-1.86L53.36,117a2.94,2.94,0,0,1-.4-2.8A8.22,8.22,0,0,0,45.31,103a6.23,6.23,0,0,0-.74,0h-.25A2.91,2.91,0,0,1,42,101.85l-6.34-8.47a4.59,4.59,0,0,1-.87-3.44,4.53,4.53,0,0,1,1.81-3L99.82,39.57a4.63,4.63,0,0,1,6.48.94l24,32.11a4.62,4.62,0,0,1-.93,6.48l-2.2,1.65a.77.77,0,0,1-1.07-.16l-.25-.33a.77.77,0,0,1,.15-1.08l2.2-1.64a2.65,2.65,0,0,0,1-1.76,2.62,2.62,0,0,0-.5-2l-24-32.11a2.66,2.66,0,0,0-3.75-.54L49.33,79.8l.15.21a1,1,0,0,1-.14,1.43,1,1,0,0,1-.59.2,1,1,0,0,1-.78-.39L47.82,81l-.26.09-9.8,7.33a2.69,2.69,0,0,0-.54,3.75l6.34,8.47a1,1,0,0,0,.76.39c.38,0,.69,0,1,0A10.18,10.18,0,0,1,54.78,115a.94.94,0,0,0,.14.91l6.34,8.46a2.66,2.66,0,0,0,3.75.54l10-7.48-.15-.21a1,1,0,0,1,.15-1.43,1,1,0,0,1,.58-.2,1,1,0,0,1,.78.39l.16.21.25-.09,40-30a1.17,1.17,0,0,1,.68-.22,1.13,1.13,0,0,1,.91.45.81.81,0,0,1,.17.61.74.74,0,0,1-.29.51l-52.11,39A4.63,4.63,0,0,1,63.41,127.35Z"/></svg>