<?xml version="1.0" encoding="utf-8"?><svg id="Livello_2" data-name="Livello 2" xmlns="http://www.w3.org/2000/svg" viewBox="0 0 166 166"><defs><style>.cls-1{fill:#121258;}</style></defs><title>W47_DownloadApp_Icon1</title><path class="cls-1" d="M111.43,49.88H54.57V43a5.53,5.53,0,0,1,5.33-5.69h46.21A5.53,5.53,0,0,1,111.43,43ZM57.06,47.39h51.88V43a3,3,0,0,0-2.83-3.19H59.9A3,3,0,0,0,57.06,43Z"/><rect class="cls-1" x="108.94" y="48.67" width="2.49" height="56.29"/><rect class="cls-1" x="54.57" y="48.67" width="2.49" height="68.14"/><path class="cls-1" d="M106.11,128.67H59.9A5.53,5.53,0,0,1,54.57,123V113h56.86v10A5.53,5.53,0,0,1,106.11,128.67Zm-49-13.16V123a3,3,0,0,0,2.84,3.19h46.21a3,3,0,0,0,2.83-3.19v-7.47Z"/><rect class="cls-1" x="80.28" y="119.6" width="5.44" height="2.49"/><rect class="cls-1" x="81.75" y="67.46" width="2.49" height="25.27"/><polygon class="cls-1" points="83 95.5 72.14 84.64 73.91 82.88 83 91.98 92.1 82.88 93.86 84.64 83 95.5"/><path class="cls-1" d="M83,166.25A83.25,83.25,0,1,1,166.25,83,83.35,83.35,0,0,1,83,166.25Zm0-164A80.75,80.75,0,1,0,163.75,83,80.84,80.84,0,0,0,83,2.25Z"/></svg>