<?xml version="1.0" encoding="utf-8"?><svg id="Livello_2" data-name="Livello 2" xmlns="http://www.w3.org/2000/svg" viewBox="0 0 166 166"><defs><style>.cls-1{fill:#121258;}</style></defs><title>W47_DownloadApp_icon4</title><path class="cls-1" d="M83,166a83,83,0,1,1,83-83A83.09,83.09,0,0,1,83,166ZM83,2.49A80.51,80.51,0,1,0,163.51,83,80.61,80.61,0,0,0,83,2.49Z"/><path class="cls-1" d="M62.16,91.54a5.63,5.63,0,1,1,5.63-5.63A5.63,5.63,0,0,1,62.16,91.54Zm0-8.93a3.31,3.31,0,1,0,3.3,3.3A3.31,3.31,0,0,0,62.16,82.61Z"/><path class="cls-1" d="M77.38,54.4a8.62,8.62,0,0,1,8.27-8.27v2.32a6.31,6.31,0,0,0-6,5.95Z"/><path class="cls-1" d="M86.3,61a6.28,6.28,0,0,0,6-6h2.33a8.65,8.65,0,0,1-8.28,8.28Z"/><path class="cls-1" d="M112.78,52.91a1.16,1.16,0,0,1-1.15-1,6.1,6.1,0,0,0-5-5,1.16,1.16,0,0,1,0-2.29,6.1,6.1,0,0,0,5-5,1.16,1.16,0,0,1,2.29,0,6.1,6.1,0,0,0,5,5,1.16,1.16,0,0,1,0,2.29,6.1,6.1,0,0,0-5,5A1.16,1.16,0,0,1,112.78,52.91Zm-.27-9.43a8.32,8.32,0,0,1-2.05,2.05l-.38.26.38.27a8.32,8.32,0,0,1,2.05,2l.27.38.26-.38a8.32,8.32,0,0,1,2-2l.38-.27-.38-.26a8.32,8.32,0,0,1-2-2.05l-.26-.38Z"/><path class="cls-1" d="M113.63,114a25.83,25.83,0,0,1-2.88,1.81,1.17,1.17,0,0,0-.63,1V125H99.05v-4.8a1.16,1.16,0,0,0-1.16-1.16H74.07a1.16,1.16,0,0,0-1.16,1.16V125H61.83v-8.17a1.18,1.18,0,0,0-.62-1A27.36,27.36,0,0,1,47.93,99.1a1.17,1.17,0,0,0-1.13-.87H41V88.64h5.18a1.17,1.17,0,0,0,1.15-1,27,27,0,0,1,9.61-16.71,1.17,1.17,0,0,0,.43-.91V58.92l.24,0c3.59.53,7,2.64,8.3,6a1.17,1.17,0,0,0,1.09.75,1.21,1.21,0,0,0,.38-.06A12.74,12.74,0,0,1,71,64.91l2.52-.07.1.12a15.71,15.71,0,0,0,3.18,2.91l.83.58H71.42v2.33h29.12V68.45H94.33l.87-.61A16,16,0,0,0,98.32,65l.1-.12h.16A27,27,0,0,1,125,92c0,.67,0,1.4-.11,2.3a3.3,3.3,0,0,1-3.19,2.45,2.82,2.82,0,0,1-.41,0,3.33,3.33,0,0,1-2.9-3.25V92.27h-2.32v1.16a5.63,5.63,0,0,0,5.62,5.63,5.24,5.24,0,0,0,1.92-.36l.6-.22-.17.62a27.16,27.16,0,0,1-5.83,10.78l2.13,1.08a29.54,29.54,0,0,0,6.84-16.33,5.4,5.4,0,0,0,.15-1.2V92a29.33,29.33,0,0,0-26.89-29.32l-.49-.05.23-.43a16,16,0,1,0-28.43,0l.23.43-.57.06a28.93,28.93,0,0,0-3.58.55l-.23.05-.12-.2a13.2,13.2,0,0,0-11.27-6.5A1.17,1.17,0,0,0,55,57.7V69.48l-.18.15a29.19,29.19,0,0,0-9.61,16.43l-.06.26H39.83a1.17,1.17,0,0,0-1.17,1.16V99.39a1.17,1.17,0,0,0,1.17,1.16h6.1l.07.23a29.74,29.74,0,0,0,13.34,16.67l.17.09v8.65a1.16,1.16,0,0,0,1.16,1.16h13.4a1.16,1.16,0,0,0,1.16-1.16v-4.8h21.5v4.8a1.16,1.16,0,0,0,1.16,1.16h13.4a1.16,1.16,0,0,0,1.16-1.16v-8.65l.16-.09c.44-.25.87-.53,1.3-.8ZM86,41h0a13.59,13.59,0,0,1,13,9.27A13.75,13.75,0,1,1,86,41Z"/></svg>