<?xml version="1.0" encoding="utf-8"?><svg id="Livello_2" data-name="Livello 2" xmlns="http://www.w3.org/2000/svg" viewBox="0 0 132 44"><defs><style>.cls-1{fill:#a6a6a6;}.cls-2{fill:#fff;}</style></defs><title>W47_DownloadApp_DownloadAppStore</title><path class="cls-1" d="M120.33.4H9.5a14.22,14.22,0,0,0-2.16.2,7.11,7.11,0,0,0-2.06.67A6.8,6.8,0,0,0,3.54,2.56,6.68,6.68,0,0,0,2.26,4.31a7,7,0,0,0-.67,2.05,14.34,14.34,0,0,0-.2,2.16c0,.34,0,.67,0,1v25c0,.34,0,.66,0,1a14.22,14.22,0,0,0,.2,2.16,7.11,7.11,0,0,0,.67,2.06,7.17,7.17,0,0,0,3,3,7.44,7.44,0,0,0,2.06.68,14.21,14.21,0,0,0,2.16.19h113a14.21,14.21,0,0,0,2.16-.19,7.67,7.67,0,0,0,2.06-.68,7.17,7.17,0,0,0,3-3,7.11,7.11,0,0,0,.67-2.06,15.63,15.63,0,0,0,.2-2.16v-1c0-.39,0-.78,0-1.18V10.7c0-.4,0-.79,0-1.18v-1a15.77,15.77,0,0,0-.2-2.16,7,7,0,0,0-.67-2.05,6.68,6.68,0,0,0-1.28-1.75,6.8,6.8,0,0,0-1.74-1.28,7.31,7.31,0,0,0-2.06-.67,14.22,14.22,0,0,0-2.16-.2h-2.17Z"/><path d="M10.5,42.66l-1,0a13.53,13.53,0,0,1-2-.17,6.38,6.38,0,0,1-1.79-.59,6.1,6.1,0,0,1-1.51-1.1,6,6,0,0,1-1.68-3.3,12,12,0,0,1-.18-2c0-.23,0-1,0-1V9.52s0-.75,0-1a11.87,11.87,0,0,1,.18-2A6,6,0,0,1,3.1,4.74,5.75,5.75,0,0,1,4.2,3.23,6.07,6.07,0,0,1,5.71,2.12,6.61,6.61,0,0,1,7.5,1.53a13,13,0,0,1,2-.17l1,0h111l1,0a12.75,12.75,0,0,1,2,.17,6.67,6.67,0,0,1,1.8.59,6.29,6.29,0,0,1,1.51,1.1,6,6,0,0,1,1.1,1.52,6.2,6.2,0,0,1,.58,1.78,14.34,14.34,0,0,1,.19,2v1c0,.4,0,.79,0,1.18V33.3c0,.4,0,.78,0,1.16v1a14.06,14.06,0,0,1-.19,2,6.13,6.13,0,0,1-.58,1.8,5.87,5.87,0,0,1-1.1,1.5,5.63,5.63,0,0,1-1.51,1.1,6.15,6.15,0,0,1-1.8.6,13.32,13.32,0,0,1-2,.17l-1,0H10.5Z"/><path class="cls-2" d="M28.13,22.32a5.34,5.34,0,0,1,2.54-4.48,5.46,5.46,0,0,0-4.31-2.33c-1.81-.19-3.57,1.09-4.49,1.09s-2.37-1.07-3.9-1a5.73,5.73,0,0,0-4.83,3c-2.09,3.61-.53,8.93,1.47,11.85,1,1.43,2.17,3,3.7,3s2.06-1,3.87-1,2.31,1,3.88.92,2.62-1.44,3.58-2.88a11.81,11.81,0,0,0,1.64-3.34A5.19,5.19,0,0,1,28.13,22.32Z"/><path class="cls-2" d="M25.18,13.59a5.26,5.26,0,0,0,1.2-3.77,5.33,5.33,0,0,0-3.46,1.79,5,5,0,0,0-1.24,3.63A4.43,4.43,0,0,0,25.18,13.59Z"/><path class="cls-2" d="M47.07,29.71H42l-1.22,3.63H38.56L43.4,19.92h2.25L50.5,33.34H48.29ZM42.48,28h4.06l-2-5.88h-.06Z"/><path class="cls-2" d="M61,28.45c0,3-1.62,5-4.08,5a3.3,3.3,0,0,1-3.07-1.71h0v4.84h-2v-13h1.95v1.62h0a3.47,3.47,0,0,1,3.12-1.72C59.32,23.46,61,25.42,61,28.45Zm-2.06,0c0-2-1-3.28-2.58-3.28s-2.57,1.33-2.57,3.28,1,3.29,2.57,3.29S58.89,30.45,58.89,28.45Z"/><path class="cls-2" d="M71.72,28.45c0,3-1.63,5-4.08,5a3.31,3.31,0,0,1-3.08-1.71h0v4.84h-2v-13h1.94v1.62h0a3.47,3.47,0,0,1,3.12-1.72C70.08,23.46,71.72,25.42,71.72,28.45Zm-2.07,0c0-2-1-3.28-2.58-3.28S64.5,26.5,64.5,28.45s1,3.29,2.57,3.29S69.65,30.45,69.65,28.45Z"/><path class="cls-2" d="M78.83,29.6c.15,1.33,1.44,2.2,3.21,2.2s2.9-.87,2.9-2.07c0-1-.73-1.66-2.47-2.09l-1.74-.42c-2.46-.59-3.6-1.75-3.6-3.62,0-2.31,2-3.9,4.88-3.9s4.78,1.59,4.84,3.9h-2c-.12-1.33-1.22-2.14-2.84-2.14s-2.72.82-2.72,2c0,.94.7,1.5,2.43,1.93l1.48.36c2.75.65,3.89,1.76,3.89,3.72,0,2.51-2,4.08-5.17,4.08-3,0-5-1.53-5.12-4Z"/><path class="cls-2" d="M91.4,21.24v2.32h1.86v1.59H91.4v5.39c0,.84.37,1.23,1.19,1.23a5.76,5.76,0,0,0,.66-.05V33.3a5.34,5.34,0,0,1-1.12.09c-2,0-2.75-.74-2.75-2.64v-5.6H88V23.56h1.42V21.24Z"/><path class="cls-2" d="M94.33,28.45c0-3.08,1.82-5,4.64-5s4.64,1.93,4.64,5-1.79,5-4.64,5S94.33,31.53,94.33,28.45Zm7.23,0c0-2.11-1-3.36-2.59-3.36s-2.59,1.26-2.59,3.36,1,3.35,2.59,3.35S101.56,30.57,101.56,28.45Z"/><path class="cls-2" d="M105.26,23.56h1.92v1.66h0a2.32,2.32,0,0,1,2.35-1.76,3,3,0,0,1,.69.07v1.88a2.75,2.75,0,0,0-.91-.12,2,2,0,0,0-2.09,2.25v5.8h-2Z"/><path class="cls-2" d="M119.52,30.46c-.27,1.78-2,3-4.21,3-2.85,0-4.61-1.91-4.61-5s1.77-5,4.52-5,4.41,1.86,4.41,4.82V29h-6.91v.12a2.56,2.56,0,0,0,2.64,2.77,2.2,2.2,0,0,0,2.25-1.38Zm-6.79-2.91h4.89a2.35,2.35,0,0,0-2.4-2.49A2.49,2.49,0,0,0,112.73,27.55Z"/><path class="cls-2" d="M42.23,9.83c1.91,0,3,1.17,3,3.2s-1.11,3.24-3,3.24H39.9V9.83Zm-1.32,5.53h1.21A2,2,0,0,0,44.25,13a2,2,0,0,0-2.13-2.3H40.91Z"/><path class="cls-2" d="M46.4,13.84a2.3,2.3,0,1,1,4.58,0,2.3,2.3,0,1,1-4.58,0Zm3.6,0c0-1.05-.48-1.67-1.31-1.67s-1.3.62-1.3,1.67.47,1.67,1.3,1.67S50,14.9,50,13.84Z"/><path class="cls-2" d="M57.08,16.27h-1l-1-3.58H55l-1,3.58H53l-1.34-4.86h1l.87,3.71h.07l1-3.71h.92l1,3.71h.08l.87-3.71h1Z"/><path class="cls-2" d="M59.54,11.41h.93v.77h.07A1.45,1.45,0,0,1,62,11.32a1.57,1.57,0,0,1,1.68,1.8v3.15h-1v-2.9c0-.79-.34-1.17-1.05-1.17a1.11,1.11,0,0,0-1.16,1.23v2.84h-1Z"/><path class="cls-2" d="M65.2,9.51h1v6.76h-1Z"/><path class="cls-2" d="M67.5,13.84a2.3,2.3,0,1,1,4.58,0,2.3,2.3,0,1,1-4.58,0Zm3.6,0c0-1.05-.48-1.67-1.31-1.67s-1.3.62-1.3,1.67.47,1.67,1.3,1.67S71.1,14.9,71.1,13.84Z"/><path class="cls-2" d="M73.09,14.9c0-.88.66-1.38,1.81-1.45l1.32-.08V13c0-.51-.34-.8-1-.8s-.91.19-1,.54h-.93c.1-.84.89-1.37,2-1.37s1.91.6,1.91,1.63v3.32h-.93v-.68h-.07a1.62,1.62,0,0,1-1.46.76A1.47,1.47,0,0,1,73.09,14.9Zm3.13-.42v-.4L75,14.15c-.67,0-1,.27-1,.7s.38.7.9.7A1.14,1.14,0,0,0,76.22,14.48Z"/><path class="cls-2" d="M78.44,13.84c0-1.54.79-2.51,2-2.51a1.62,1.62,0,0,1,1.49.85H82V9.51h1v6.76h-.92V15.5H82a1.66,1.66,0,0,1-1.52.85C79.22,16.35,78.44,15.38,78.44,13.84Zm1,0c0,1,.49,1.65,1.3,1.65S82,14.86,82,13.84s-.51-1.65-1.31-1.65S79.43,12.82,79.43,13.84Z"/><path class="cls-2" d="M87,13.84a2.31,2.31,0,1,1,4.59,0,2.31,2.31,0,1,1-4.59,0Zm3.6,0c0-1.05-.47-1.67-1.3-1.67s-1.31.62-1.31,1.67.47,1.67,1.31,1.67S90.55,14.9,90.55,13.84Z"/><path class="cls-2" d="M92.83,11.41h.92v.77h.07a1.46,1.46,0,0,1,1.45-.86A1.58,1.58,0,0,1,97,13.12v3.15H96v-2.9c0-.79-.34-1.17-1-1.17a1.11,1.11,0,0,0-1.16,1.23v2.84h-1Z"/><path class="cls-2" d="M102.38,10.2v1.23h1.05v.81h-1.05v2.5c0,.51.21.73.69.73l.36,0v.8a2.7,2.7,0,0,1-.52.05c-1.07,0-1.49-.38-1.49-1.31V12.24h-.77v-.81h.77V10.2Z"/><path class="cls-2" d="M104.74,9.51h1v2.68h.07a1.51,1.51,0,0,1,1.48-.87,1.6,1.6,0,0,1,1.68,1.81v3.14h-1v-2.9c0-.78-.36-1.17-1-1.17a1.14,1.14,0,0,0-1.23,1.23v2.84h-1Z"/><path class="cls-2" d="M114.53,15a2,2,0,0,1-2.11,1.41,2.22,2.22,0,0,1-2.25-2.51,2.24,2.24,0,0,1,2.24-2.54c1.36,0,2.17.92,2.17,2.45v.33h-3.43v.06a1.29,1.29,0,0,0,1.3,1.39A1.16,1.16,0,0,0,113.6,15Zm-3.38-1.57h2.46a1.18,1.18,0,0,0-1.2-1.26A1.24,1.24,0,0,0,111.15,13.39Z"/></svg>