<?xml version="1.0" encoding="utf-8"?><svg id="Livello_2" data-name="Livello 2" xmlns="http://www.w3.org/2000/svg" xmlns:xlink="http://www.w3.org/1999/xlink" viewBox="0 0 144 44"><defs><style>.cls-1{fill:#a6a6a6;}.cls-10,.cls-2,.cls-3{fill:#fff;}.cls-2{stroke:#fff;stroke-miterlimit:10;stroke-width:0.32px;}.cls-4{fill:url(#linear-gradient);}.cls-5{fill:url(#linear-gradient-2);}.cls-6{fill:url(#linear-gradient-3);}.cls-7{fill:url(#linear-gradient-4);}.cls-8{opacity:0.2;}.cls-10,.cls-8,.cls-9{isolation:isolate;}.cls-9{opacity:0.12;}.cls-10{opacity:0.25;}</style><linearGradient id="linear-gradient" x1="23.76" y1="9805.92" x2="6.04" y2="9788.2" gradientTransform="matrix(1, 0, 0, -1, 0, 9816)" gradientUnits="userSpaceOnUse"><stop offset="0" stop-color="#00a0ff"/><stop offset="0.01" stop-color="#00a1ff"/><stop offset="0.26" stop-color="#00beff"/><stop offset="0.51" stop-color="#00d2ff"/><stop offset="0.76" stop-color="#00dfff"/><stop offset="1" stop-color="#00e3ff"/></linearGradient><linearGradient id="linear-gradient-2" x1="36.46" y1="9794" x2="10.92" y2="9794" gradientTransform="matrix(1, 0, 0, -1, 0, 9816)" gradientUnits="userSpaceOnUse"><stop offset="0" stop-color="#ffe000"/><stop offset="0.41" stop-color="#ffbd00"/><stop offset="0.78" stop-color="orange"/><stop offset="1" stop-color="#ff9c00"/></linearGradient><linearGradient id="linear-gradient-3" x1="26.95" y1="9791.58" x2="2.93" y2="9767.55" gradientTransform="matrix(1, 0, 0, -1, 0, 9816)" gradientUnits="userSpaceOnUse"><stop offset="0" stop-color="#ff3a44"/><stop offset="1" stop-color="#c31162"/></linearGradient><linearGradient id="linear-gradient-4" x1="8.45" y1="9814.93" x2="19.18" y2="9804.2" gradientTransform="matrix(1, 0, 0, -1, 0, 9816)" gradientUnits="userSpaceOnUse"><stop offset="0" stop-color="#32a071"/><stop offset="0.07" stop-color="#2da771"/><stop offset="0.48" stop-color="#15cf74"/><stop offset="0.8" stop-color="#06e775"/><stop offset="1" stop-color="#00f076"/></linearGradient></defs><title>W47_DownloadApp_DownloadGooglePlay</title><rect x="0.75" y="0.89" width="142.51" height="42.23" rx="5.28"/><path class="cls-1" d="M138,1.73a4.44,4.44,0,0,1,4.43,4.44V37.83A4.44,4.44,0,0,1,138,42.27H6a4.44,4.44,0,0,1-4.43-4.44V6.17A4.44,4.44,0,0,1,6,1.73H138m0-.84H6A5.29,5.29,0,0,0,.75,6.17V37.83A5.29,5.29,0,0,0,6,43.11H138a5.29,5.29,0,0,0,5.27-5.28V6.17A5.29,5.29,0,0,0,138,.89Z"/><path class="cls-2" d="M50.8,11.7A2.83,2.83,0,0,1,50,13.81a3,3,0,0,1-2.32.94,3.26,3.26,0,0,1-3.29-3.31,3.26,3.26,0,0,1,3.29-3.3A3.21,3.21,0,0,1,49,8.4a2.63,2.63,0,0,1,1,.71l-.56.56a2.11,2.11,0,0,0-1.73-.76,2.46,2.46,0,0,0-2.46,2.53A2.42,2.42,0,0,0,46,13.27a2.39,2.39,0,0,0,1.73.7,2.41,2.41,0,0,0,1.77-.7A2.06,2.06,0,0,0,50,12h-2.3v-.76h3.07A2.74,2.74,0,0,1,50.8,11.7Z"/><path class="cls-2" d="M55.67,9.06H52.78v2h2.6v.76h-2.6v2h2.89v.78H52V8.28h3.7Z"/><path class="cls-2" d="M59.1,14.61h-.82V9.06H56.52V8.28h4.35v.78H59.1Z"/><path class="cls-2" d="M64,14.61V8.28h.81v6.33Z"/><path class="cls-2" d="M68.44,14.61h-.81V9.06H65.86V8.28h4.35v.78H68.44Z"/><path class="cls-2" d="M78.45,13.79a3.28,3.28,0,0,1-4.64,0,3.21,3.21,0,0,1-.94-2.35,3.19,3.19,0,0,1,.94-2.34,3.09,3.09,0,0,1,2.32-1,3.12,3.12,0,0,1,2.32,1,3.24,3.24,0,0,1,.93,2.34A3.24,3.24,0,0,1,78.45,13.79Zm-4-.53a2.44,2.44,0,0,0,3.44,0,2.46,2.46,0,0,0,.7-1.82,2.46,2.46,0,0,0-.7-1.81,2.41,2.41,0,0,0-3.44,0,2.46,2.46,0,0,0-.71,1.81A2.47,2.47,0,0,0,74.41,13.26Z"/><path class="cls-2" d="M80.52,14.61V8.28h1l3.07,4.92h0l0-1.22V8.28h.82v6.33h-.85L81.34,9.44h0l0,1.23v3.94Z"/><path class="cls-3" d="M72.67,23.85a4.49,4.49,0,1,0,4.51,4.49A4.43,4.43,0,0,0,72.67,23.85Zm0,7.21a2.73,2.73,0,1,1,2.54-2.72A2.59,2.59,0,0,1,72.67,31.06Zm-9.83-7.21a4.49,4.49,0,1,0,4.51,4.49A4.43,4.43,0,0,0,62.84,23.85Zm0,7.21a2.73,2.73,0,1,1,2.53-2.72A2.59,2.59,0,0,1,62.84,31.06Zm-11.7-5.83v1.9H55.7a4,4,0,0,1-1,2.4,4.71,4.71,0,0,1-3.53,1.39,5.07,5.07,0,0,1,0-10.13,4.84,4.84,0,0,1,3.44,1.36l1.34-1.35a6.67,6.67,0,0,0-4.78-1.92,7,7,0,1,0,0,14,6.38,6.38,0,0,0,4.87-2,6.27,6.27,0,0,0,1.65-4.45,6.87,6.87,0,0,0-.1-1.19ZM99,26.71a4.16,4.16,0,0,0-3.84-2.86,4.27,4.27,0,0,0-4.23,4.49,4.39,4.39,0,0,0,4.45,4.49,4.46,4.46,0,0,0,3.74-2l-1.53-1a2.56,2.56,0,0,1-2.21,1.24,2.29,2.29,0,0,1-2.18-1.36l6-2.48ZM92.85,28.2a2.47,2.47,0,0,1,2.35-2.62,1.72,1.72,0,0,1,1.66,1ZM88,32.56h2V19.36H88Zm-3.23-7.71h-.07a3.12,3.12,0,0,0-2.36-1,4.49,4.49,0,0,0,0,9,3.06,3.06,0,0,0,2.36-1h.07v.64c0,1.72-.92,2.64-2.4,2.64a2.47,2.47,0,0,1-2.26-1.6l-1.72.72a4.27,4.27,0,0,0,4,2.65c2.31,0,4.27-1.36,4.27-4.68V24.12H84.74Zm-2.26,6.21a2.73,2.73,0,0,1,0-5.44,2.52,2.52,0,0,1,2.39,2.74A2.5,2.5,0,0,1,82.48,31.06Zm25.73-11.7h-4.72v13.2h2v-5h2.75a4.11,4.11,0,1,0,0-8.2Zm.06,6.36h-2.81V21.2h2.81a2.26,2.26,0,1,1,0,4.52Zm12.17-1.9a3.7,3.7,0,0,0-3.52,2l1.75.73a2.13,2.13,0,0,1,3.87.73v.13a4.37,4.37,0,0,0-2.05-.51c-1.89,0-3.8,1-3.8,3A3,3,0,0,0,120,32.81a2.8,2.8,0,0,0,2.52-1.29h.06v1h1.9V27.48C124.44,25.13,122.7,23.82,120.44,23.82Zm-.24,7.24c-.64,0-1.54-.33-1.54-1.12,0-1,1.12-1.41,2.08-1.41a3.43,3.43,0,0,1,1.8.44A2.38,2.38,0,0,1,120.2,31.06Zm11.17-6.95-2.26,5.72h-.06l-2.35-5.72h-2.12l3.52,8-2,4.45h2.06l5.41-12.45Zm-17.74,8.45h2V19.36h-2Z"/><path class="cls-4" d="M11.76,8.84a2.12,2.12,0,0,0-.49,1.49V33.67a2.12,2.12,0,0,0,.49,1.49l.08.07L24.92,22.16v-.31L11.84,8.77Z"/><path class="cls-5" d="M29.28,26.52l-4.36-4.36v-.31l4.36-4.36.1.05,5.16,2.94c1.48.84,1.48,2.21,0,3.05l-5.16,2.93Z"/><path class="cls-6" d="M29.38,26.46,24.92,22,11.76,35.16a1.71,1.71,0,0,0,2.19.06l15.43-8.76"/><path class="cls-7" d="M29.38,17.54,14,8.78a1.72,1.72,0,0,0-2.19.06L24.92,22Z"/><path class="cls-8" d="M29.28,26.36,14,35.07a1.77,1.77,0,0,1-2.11,0h0l-.08.08h0l.08.07h0a1.74,1.74,0,0,0,2.11,0l15.43-8.76Z"/><path class="cls-9" d="M11.76,35a2.09,2.09,0,0,1-.49-1.48v.15a2.12,2.12,0,0,0,.49,1.49l.08-.08Z"/><path class="cls-9" d="M34.54,23.37l-5.26,3,.1.1,5.16-2.93A1.86,1.86,0,0,0,35.65,22h0A2,2,0,0,1,34.54,23.37Z"/><path class="cls-10" d="M14,8.93l20.59,11.7A2,2,0,0,1,35.65,22h0a1.85,1.85,0,0,0-1.11-1.52L14,8.78c-1.47-.84-2.68-.14-2.68,1.55v.15C11.27,8.79,12.48,8.1,14,8.93Z"/></svg>